<svg width="36" height="36" viewBox="0 0 36 36" fill="none" xmlns="http://www.w3.org/2000/svg">
<path fill-rule="evenodd" clip-rule="evenodd" d="M17 1.52981V1H15.5C15.2239 1 15 0.776142 15 0.5C15 0.223858 15.2239 0 15.5 0H17H19H20.5C20.7761 0 21 0.223858 21 0.5C21 0.776142 20.7761 1 20.5 1H19V1.52981C22.7851 1.75609 26.2265 3.25843 28.8997 5.61248L29.8181 4.69411L28.7574 3.63345C28.5622 3.43819 28.5622 3.1216 28.7574 2.92634C28.9527 2.73108 29.2693 2.73108 29.4646 2.92634L30.5252 3.987L31.9394 5.40122L33.0001 6.46188C33.1953 6.65714 33.1953 6.97372 33.0001 7.16898C32.8048 7.36424 32.4882 7.36425 32.293 7.16898L31.2323 6.10832L30.3184 7.02225C32.7121 9.70644 34.2417 13.178 34.4702 17H35V15.5C35 15.2239 35.2239 15 35.5 15C35.7761 15 36 15.2239 36 15.5V17V19V20.5C36 20.7761 35.7761 21 35.5 21C35.2239 21 35 20.7761 35 20.5V19H34.4702C34.2278 23.0543 32.5214 26.7142 29.8725 29.4583L30.8787 30.4644L31.9393 29.4038C32.1346 29.2085 32.4512 29.2085 32.6464 29.4038C32.8417 29.599 32.8417 29.9156 32.6464 30.1109L31.5858 31.1715L30.1716 32.5858L29.1109 33.6464C28.9157 33.8417 28.5991 33.8417 28.4038 33.6464C28.2085 33.4511 28.2085 33.1346 28.4038 32.9393L29.4645 31.8786L28.3979 30.8121C25.8019 32.9215 22.5523 34.2578 19 34.4702V35H20.5C20.7761 35 21 35.2239 21 35.5C21 35.7761 20.7761 36 20.5 36H19H17H15.5C15.2239 36 15 35.7761 15 35.5C15 35.2239 15.2239 35 15.5 35H17V34.4702C13.4477 34.2578 10.1981 32.9215 7.6021 30.8121L6.53553 31.8786L7.59619 32.9393C7.79146 33.1346 7.79146 33.4511 7.59619 33.6464C7.40093 33.8417 7.08435 33.8417 6.88909 33.6464L5.82843 32.5858L4.41421 31.1715L3.35355 30.1109C3.15829 29.9156 3.15829 29.599 3.35355 29.4038C3.54882 29.2085 3.8654 29.2085 4.06066 29.4038L5.12132 30.4644L6.12748 29.4583C3.47857 26.7142 1.77218 23.0543 1.52981 19H1V20.5C1 20.7761 0.776142 21 0.5 21C0.223858 21 0 20.7761 0 20.5V19V17V15.5C0 15.2239 0.223858 15 0.5 15C0.776142 15 1 15.2239 1 15.5V17H1.52981C1.77218 12.9457 3.47858 9.28578 6.12752 6.5417L5.12136 5.53553L4.0607 6.59619C3.86543 6.79146 3.54885 6.79146 3.35359 6.59619C3.15833 6.40093 3.15833 6.08435 3.35359 5.88909L4.41425 4.82843L5.82846 3.41421L6.88912 2.35355C7.08438 2.15829 7.40097 2.15829 7.59623 2.35355C7.79149 2.54882 7.79149 2.8654 7.59623 3.06066L6.53557 4.12132L7.60214 5.18789C10.1982 3.07846 13.4477 1.74217 17 1.52981Z" fill="#AA8DD8"/>
<path fill-rule="evenodd" clip-rule="evenodd" d="M13 10.6569C13 12.3137 14.3432 13.6569 16 13.6569C17.6568 13.6569 19 12.3137 19 10.6569C19 9.00003 17.6568 7.65686 16 7.65686C14.3432 7.65686 13 9.00003 13 10.6569ZM20 18C20 20.7614 22.2386 23 25 23C27.7614 23 30 20.7614 30 18C30 15.2386 27.7614 13 25 13C22.2386 13 20 15.2386 20 18ZM12 28C10.3432 28 9 26.6568 9 25C9 23.3432 10.3432 22 12 22C13.6568 22 15 23.3432 15 25C15 26.6568 13.6568 28 12 28Z" fill="#B99EE4"/>
</svg>
