<svg width="36" height="36" viewBox="0 0 36 36" fill="none" xmlns="http://www.w3.org/2000/svg">
<path d="M18 22C14.377 22 11.973 21.578 9 21C8.321 20.869 7 21 7 23C7 27 11.595 32 18 32C24.404 32 29 27 29 23C29 21 27.679 20.868 27 21C24.027 21.578 21.623 22 18 22Z" fill="#292F33"/>
<path fill-rule="evenodd" clip-rule="evenodd" d="M22.891 29.9566C22.4111 27.696 20.4036 26 18 26C15.5963 26 13.5888 27.6961 13.109 29.9568C14.5569 30.6084 16.2076 31 18 31C19.7923 31 21.443 30.6084 22.891 29.9566Z" fill="#E8596E"/>
<path d="M5.22361 21.5528C4.97662 21.4293 4.67628 21.5294 4.55279 21.7764C4.42929 22.0234 4.5294 22.3237 4.77639 22.4472L5.22361 21.5528ZM9.5 19.5C9.5 19.2239 9.27614 19 9 19C8.72386 19 8.5 19.2239 8.5 19.5H9.5ZM4.77639 22.4472C5.12915 22.6236 5.59737 22.6889 6.06538 22.6715C6.54394 22.6538 7.07373 22.5481 7.57196 22.3346C8.57923 21.9029 9.5 21.0007 9.5 19.5H8.5C8.5 20.4993 7.92077 21.0971 7.17804 21.4154C6.80127 21.5769 6.39356 21.6587 6.02837 21.6722C5.65263 21.6861 5.37085 21.6264 5.22361 21.5528L4.77639 22.4472Z" fill="#292F33"/>
<path d="M30.7764 21.5528C31.0234 21.4293 31.3237 21.5294 31.4472 21.7764C31.5707 22.0234 31.4706 22.3237 31.2236 22.4472L30.7764 21.5528ZM26.5 19.5C26.5 19.2239 26.7239 19 27 19C27.2761 19 27.5 19.2239 27.5 19.5H26.5ZM31.2236 22.4472C30.8709 22.6236 30.4026 22.6889 29.9346 22.6715C29.4561 22.6538 28.9263 22.5481 28.428 22.3346C27.4208 21.9029 26.5 21.0007 26.5 19.5H27.5C27.5 20.4993 28.0792 21.0971 28.822 21.4154C29.1987 21.5769 29.6064 21.6587 29.9716 21.6722C30.3474 21.6861 30.6291 21.6264 30.7764 21.5528L31.2236 22.4472Z" fill="#292F33"/>
</svg>
