<svg width="36" height="36" viewBox="0 0 36 36" fill="none" xmlns="http://www.w3.org/2000/svg">
<path d="M36 19.5926C36 16.6094 32.5605 18.538 31.5 19.5926C30 21.0841 27 24.0673 24 22.5757C19.758 20.4666 18 21.0841 18 21.0841C18 21.0841 16.2435 20.4666 12 22.5757C9 24.0673 6 21.0841 4.5 19.5926C3.4395 18.538 0 16.6094 0 19.5926C0 22.5757 1.5 22.5757 1.5 22.5757C0 25.5589 3 27.0505 3 27.0505C3 31.5252 7.5 31.5252 7.5 31.5252C7.5 36 13.5 34.5084 13.5 34.5084C15 36 18 36 18 36C18 36 21 36 22.5 34.5084C22.5 34.5084 28.5 36 28.5 31.5252C28.5 31.5252 33 31.5252 33 27.0505C33 27.0505 36 25.5589 34.5 22.5757C34.5 22.5757 36 22.5757 36 19.5926Z" fill="#E6E7E8"/>
</svg>
