<svg width="36" height="36" viewBox="0 0 36 36" fill="none" xmlns="http://www.w3.org/2000/svg">
<g clip-path="url(#clip0)">
<path d="M35.756 15.188C35.756 14.743 35.71 17.428 32.004 18.582C30.543 19.037 30.716 21.162 30.739 21.734C30.819 23.709 31.137 25.626 31.236 26.126C31.336 26.633 31.743 28.232 31.838 28.715C31.943 29.247 32.079 31.121 32.171 31.588C32.282 32.151 32.386 32.556 32.471 32.986C32.655 33.915 32.895 34.584 33.303 34.584C33.712 34.584 33.719 33.459 33.902 32.531C33.987 32.102 34.009 31.744 34.12 31.182C34.212 30.718 34.483 27.541 34.585 27.026C34.682 26.535 35.221 24.458 35.319 23.959C35.419 23.452 35.718 21.465 35.798 20.98C36.276 18.083 35.756 15.189 35.756 15.188ZM0.313004 21.375C0.313004 21.085 0.926004 22.539 1.461 22.863C2.151 23.281 2.691 24.063 3.501 24.75C4.311 25.437 4.309 26.724 4.277 27.344C4.141 30 3.791 32.643 3.715 32.969C3.639 33.3 3.357 35.792 2.985 35.792C2.613 35.792 2.432 34.914 2.292 34.308L2.067 33.331C1.997 33.029 1.947 32.7 1.867 32.355C1.795 32.041 1.446 29.768 1.371 29.442C1.295 29.111 0.965004 27.799 0.892004 27.484C0.812004 27.137 0.778004 26.8 0.702004 26.497C0.375004 25.197 0.313004 21.376 0.313004 21.375Z" fill="#BBDDF5"/>
<path d="M24.266 1.125C24.266 1.125 23.275 0.703999 22.949 0.603999C22.662 0.515999 21.756 0.327999 21.196 0.219999C20.571 0.0989988 19.902 0.104999 19.902 0.104999C19.902 0.104999 19.872 0.506999 20.016 1.13C20.132 1.632 20.42 2.328 20.474 2.689C20.533 3.08 20.542 3.544 20.615 4.037C20.679 4.463 20.743 4.917 20.812 5.379C20.879 5.825 20.994 6.273 21.061 6.72C21.131 7.184 21.163 7.645 21.228 8.073C21.302 8.569 21.218 9.051 21.277 9.444C21.398 10.25 21.61 11.376 21.839 11.376C22.068 11.376 22.27 10.357 22.391 9.548C22.45 9.157 22.364 8.853 22.438 8.36C22.502 7.934 22.556 7.51 22.626 7.048C22.693 6.602 22.747 6.166 22.814 5.72C22.884 5.256 22.875 4.804 22.939 4.376C23.013 3.88 23.302 3.269 23.361 2.876C23.48 2.07 24.266 1.125 24.266 1.125ZM5.875 9.379C5.875 9.379 6.606 9.215 7.302 9.07C7.755 8.976 8.114 8.611 8.855 8.341C9.626 8.06 10.122 7.817 10.122 7.817C10.122 7.817 10.185 9.122 10.013 9.773C9.874 10.298 9.801 10.976 9.737 11.353C9.667 11.761 9.628 12.242 9.54 12.757C9.464 13.202 9.324 13.667 9.241 14.151C9.161 14.618 9.097 15.165 9.017 15.632C8.934 16.117 8.912 16.534 8.835 16.981C8.746 17.499 8.813 17.551 8.742 17.961C8.597 18.804 8.577 18.688 8.53 19.147C8.483 19.606 8.136 19.663 7.986 19.327C7.836 18.991 7.995 18.806 7.85 17.96C7.78 17.552 7.523 16.473 7.44 15.99C7.36 15.523 7.252 14.791 7.172 14.324C7.089 13.839 7.068 13.057 6.991 12.609C6.902 12.091 6.766 11.771 6.696 11.361C6.551 10.52 5.875 9.379 5.875 9.379Z" fill="#BBDDF5"/>
</g>
<defs>
<clipPath id="clip0">
<rect width="36" height="36" fill="white"/>
</clipPath>
</defs>
</svg>
