<svg width="36" height="36" viewBox="0 0 36 36" fill="none" xmlns="http://www.w3.org/2000/svg">
<g clip-path="url(#clip0)">
<path d="M28 11L36 12C36 12 36 17 36 20C36 23 36 29 36 29H28C28 29 27 25.5 28 20C29 14.5 28 11 28 11Z" fill="#DD2E44"/>
<path d="M1 12C1 5.37258 6.37258 0 13 0H24C30.6274 0 36 5.37258 36 12H1Z" fill="#DD2E44"/>
<path d="M32 33C34.2091 33 36 31.2091 36 29C36 26.7909 34.2091 25 32 25C29.7909 25 28 26.7909 28 29C28 31.2091 29.7909 33 32 33Z" fill="#F1F2F2"/>
<path d="M30 12C30 13.104 29.0731 14 27.931 14H2.06897C0.926897 14 0 13.104 0 12V11C0 9.896 0.926897 9 2.06897 9H27.931C29.0731 9 30 9.896 30 11V12Z" fill="#F1F2F2"/>
</g>
<defs>
<clipPath id="clip0">
<rect width="36" height="36" fill="white"/>
</clipPath>
</defs>
</svg>
