<svg width="36" height="36" viewBox="0 0 36 36" fill="none" xmlns="http://www.w3.org/2000/svg">
<path d="M16 13.5C16 17.09 13.09 20 9.5 20C5.91 20 3 17.09 3 13.5C3 9.91 5.91 7 9.5 7C13.09 7 16 9.91 16 13.5Z" fill="#F4F7F9"/>
<g clip-path="url(#clip0)">
<path d="M12.7778 14.2222C12.7778 13.764 12.6962 13.3247 12.5467 12.9182C12.4445 14.1158 11.806 14.7309 11.1389 14.4444C10.514 14.176 10.9351 13.1296 10.9662 12.6302C11.0187 11.7838 10.9636 10.8149 9.42601 10.0093C10.0649 11.2316 9.50001 11.9909 8.90756 12.0371C8.25023 12.0884 7.64823 11.4722 7.87045 10.4722C7.1509 11.0024 7.13001 11.8949 7.35201 12.4722C7.58356 13.074 7.34267 13.574 6.77801 13.6296C6.1469 13.6918 5.79623 12.9538 6.11956 11.7778C5.56001 12.4367 5.22223 13.29 5.22223 14.2222C5.22223 16.3087 6.91356 18 9.00001 18C11.0865 18 12.7778 16.3087 12.7778 14.2222Z" fill="#F4900C"/>
<path d="M11.3098 15.3331C11.3427 16.0184 10.7407 16.2871 10.4167 16.1573C9.94866 15.97 10.0742 15.6482 9.95377 14.9816C9.83333 14.3149 9.37044 13.852 8.68533 13.6482C9.18533 15.0556 8.40822 15.5742 8.00088 15.6669C7.58488 15.7616 7.16688 15.6667 7.11911 14.7764C6.63377 15.2596 6.33333 15.928 6.33333 16.6667C6.33333 16.7484 6.33844 16.8289 6.34555 16.9089C7.02777 17.5831 7.96488 18 8.99999 18C10.0351 18 10.9722 17.5831 11.6544 16.9089C11.6615 16.8289 11.6667 16.7484 11.6667 16.6667C11.6667 16.1807 11.5369 15.7253 11.3098 15.3331Z" fill="#FFCC4D"/>
</g>
<defs>
<clipPath id="clip0">
<rect width="8" height="8" fill="white" transform="translate(5 10)"/>
</clipPath>
</defs>
</svg>
