<svg width="36" height="36" viewBox="0 0 36 36" fill="none" xmlns="http://www.w3.org/2000/svg">
<path d="M33 13.5C33 17.09 30.09 20 26.5 20C22.91 20 20 17.09 20 13.5C20 9.91 22.91 7 26.5 7C30.09 7 33 9.91 33 13.5Z" fill="#F4F7F9"/>
<g clip-path="url(#clip0)">
<path d="M30.7778 14.2222C30.7778 13.764 30.6962 13.3247 30.5467 12.9182C30.4445 14.1158 29.806 14.7309 29.1389 14.4444C28.514 14.176 28.9351 13.1296 28.9662 12.6302C29.0187 11.7838 28.9636 10.8149 27.426 10.0093C28.0649 11.2316 27.5 11.9909 26.9076 12.0371C26.2502 12.0884 25.6482 11.4722 25.8705 10.4722C25.1509 11.0024 25.13 11.8949 25.352 12.4722C25.5836 13.074 25.3427 13.574 24.778 13.6296C24.1469 13.6918 23.7962 12.9538 24.1196 11.7778C23.56 12.4367 23.2222 13.29 23.2222 14.2222C23.2222 16.3087 24.9136 18 27 18C29.0865 18 30.7778 16.3087 30.7778 14.2222Z" fill="#F4900C"/>
<path d="M29.3098 15.3331C29.3427 16.0184 28.7407 16.2871 28.4167 16.1573C27.9487 15.97 28.0742 15.6482 27.9538 14.9816C27.8333 14.3149 27.3704 13.852 26.6853 13.6482C27.1853 15.0556 26.4082 15.5742 26.0009 15.6669C25.5849 15.7616 25.1669 15.6667 25.1191 14.7764C24.6338 15.2596 24.3333 15.928 24.3333 16.6667C24.3333 16.7484 24.3384 16.8289 24.3456 16.9089C25.0278 17.5831 25.9649 18 27 18C28.0351 18 28.9722 17.5831 29.6544 16.9089C29.6615 16.8289 29.6667 16.7484 29.6667 16.6667C29.6667 16.1807 29.5369 15.7253 29.3098 15.3331Z" fill="#FFCC4D"/>
</g>
<defs>
<clipPath id="clip0">
<rect width="8" height="8" fill="white" transform="translate(23 10)"/>
</clipPath>
</defs>
</svg>
